<?xml version="1.0" encoding="utf-8"?>
<!-- Generator: Adobe Illustrator 24.1.1, SVG Export Plug-In . SVG Version: 6.00 Build 0)  -->
<svg version="1.1" id="Capa_1" xmlns="http://www.w3.org/2000/svg" xmlns:xlink="http://www.w3.org/1999/xlink" x="0px" y="0px"
	 viewBox="0 0 700 700" style="enable-background:new 0 0 700 700;" xml:space="preserve">
<style type="text/css">
	.st0{fill:#FFFFFF;}
</style>
<g>
	<path class="st0" d="M488.6,239.9l-60.4-8.3l-29.8-51.7c-7.9-14-23-22.6-39.2-22.6h-97c-19,0-35.9,11.9-42.4,29.8l-16.2,44.2
		l-39.9,8.3c-4.7,1.1-7.9,5-7.9,9.7v57.5c0,5.4,4.3,10.1,10.1,10.1h23.7c1.8,23,21.2,41.3,44.5,41.3c23.4,0,42.8-18.3,44.5-41.3
		h95.9c1.8,23,21.2,41.3,44.5,41.3c23.4,0,42.8-18.3,44.5-41.3h23.7c5.4,0,10.1-4.3,10.1-10.1V250
		C497.3,244.9,493.7,240.6,488.6,239.9L488.6,239.9z M234.3,336.5c-12.9,0-23.7-10.4-23.7-23.7c0-12.9,10.4-23.7,23.7-23.7
		c12.9,0,23.7,10.4,23.7,23.7S247.2,336.5,234.3,336.5z M339.2,262.9h-55v9.7c0,1.1-0.7,2.2-1.8,2.9h-1.1c-0.7,0-1.4-0.4-1.8-0.7
		L259,259c-0.7-0.7-1.1-1.4-1.1-2.5s0.4-1.8,1.1-2.5l20.5-15.8c1.1-0.7,2.2-0.7,3.2-0.4c1.1,0.4,1.8,1.4,1.8,2.9v9.7h55
		c10.8,0,19.8-9,19.8-19.8c0-10.1-10.8-19.8-22.3-19.8h-61.8c-3.2,0-6.1-2.9-6.1-6.1c0-3.2,2.9-6.1,6.1-6.1h61.4
		c18.3,0,34.5,15.1,34.5,32C371.2,248.5,356.8,262.9,339.2,262.9L339.2,262.9z M418.9,336.5c-12.9,0-23.7-10.4-23.7-23.7
		c0-12.9,10.4-23.7,23.7-23.7c12.9,0,23.7,10.4,23.7,23.7S432.2,336.5,418.9,336.5z"/>
</g>
</svg>
