<?xml version="1.0" encoding="utf-8"?>
<!-- Generator: Adobe Illustrator 24.1.1, SVG Export Plug-In . SVG Version: 6.00 Build 0)  -->
<svg version="1.1" id="Capa_1" xmlns="http://www.w3.org/2000/svg" xmlns:xlink="http://www.w3.org/1999/xlink" x="0px" y="0px"
	 viewBox="0 0 700 700" style="enable-background:new 0 0 700 700;" xml:space="preserve">
<style type="text/css">
	.st0{fill:#FFFFFF;}
</style>
<g>
	<path class="st0" d="M113.7,95.2c-2.6,0.5-4.6,3-4.5,5.6v302.4c0,2.9,2.7,5.6,5.6,5.6h122.9v44.8h-51.3c-2.9,0.3-5.3,3.2-5.1,6.1
		c0.3,2.9,3.2,5.3,6.1,5.1h268.1c2.9,0.1,5.6-2.6,5.6-5.6s-2.6-5.6-5.6-5.6h-50.3v-30.4c-3.9-2.3-7.6-4.9-11.2-7.7v38.1H248.8v-44.8
		h137.4c-3.6-3.5-6.9-7.2-9.9-11.2H120.4v-39.2h237.2c-0.8-3.7-1.5-7.4-1.9-11.2H120.4V106.4h390.9v145.9c4,2.7,7.6,5.6,11.2,8.7
		V100.8c0-2.9-2.7-5.6-5.6-5.6L113.7,95.2L113.7,95.2z M176.2,142.8v33.6h11.2v-33.6L176.2,142.8L176.2,142.8z M243.2,142.8v33.6
		h11.2v-33.6L243.2,142.8L243.2,142.8z M310.3,142.8v33.6h11.2v-33.6L310.3,142.8L310.3,142.8z M377.3,142.8v33.6h11.2v-33.6
		L377.3,142.8L377.3,142.8z M444.3,142.8v33.6h11.2v-33.6L444.3,142.8L444.3,142.8z M204.1,154v11.2h22.3V154H204.1z M271.2,154
		v11.2h22.3V154H271.2z M338.2,154v11.2h22.3V154H338.2z M405.2,154v11.2h22.3V154H405.2z M176.2,210v33.6h11.2V210H176.2z
		 M243.2,210v33.6h11.2V210H243.2z M310.3,210v33.6h11.2V210H310.3z M377.3,210v33.6h11.2V210H377.3z M444.3,210v25.9
		c3.7-0.4,7.4-0.7,11.2-0.7V210H444.3z M204.2,221.2v11.2h22.3v-11.2H204.2z M271.2,221.2v11.2h22.3v-11.2H271.2z M338.2,221.2v11.2
		h22.3v-11.2H338.2z M405.2,221.2v11.2h22.3v-11.2H405.2z M455.5,240.8c-52.4,0-94.9,42.7-94.9,95.2s42.6,95.2,94.9,95.2
		c27.3,0,51.8-11.6,69.1-30.1l56.8,47.4c2.2,2.1,6.3,1.8,8.2-0.5s1.4-6.2-1-8.1l-56.8-47.4c11.7-15.8,18.7-35.3,18.7-56.5
		C550.4,283.5,507.9,240.8,455.5,240.8L455.5,240.8z M455.5,252c46.3,0,83.8,37.5,83.8,84s-37.4,84-83.8,84s-83.8-37.5-83.8-84
		S409.1,252,455.5,252z M176.2,277.2v33.6h11.2v-33.6H176.2z M243.3,277.2v33.6h11.2v-33.6H243.3z M310.3,277.2v33.6h11.2v-33.6
		H310.3z M204.2,288.4v11.2h22.3v-11.2H204.2z M271.2,288.4v11.2h22.3v-11.2H271.2z M338.2,288.4v11.2h22.3v-11.2H338.2z"/>
</g>
</svg>
