<?xml version="1.0" encoding="utf-8"?>
<!-- Generator: Adobe Illustrator 24.1.1, SVG Export Plug-In . SVG Version: 6.00 Build 0)  -->
<svg version="1.1" id="Capa_1" xmlns="http://www.w3.org/2000/svg" xmlns:xlink="http://www.w3.org/1999/xlink" x="0px" y="0px"
	 viewBox="0 0 700 700" style="enable-background:new 0 0 700 700;" xml:space="preserve">
<style type="text/css">
	.st0{fill:#FFFFFF;}
</style>
<g>
	<path class="st0" d="M551,465.9c-5-5-14-5.6-19,0l-10.1,9.5c0,11.2-4.5,21.8-13.4,29.1c-6.7,5.6-15.7,8.4-24.1,8.4h-1.7l-3.9,4.5
		c-5.6,5-5.6,13.4-0.6,19c2.8,2.8,6.2,3.9,9.5,3.9s6.7-1.1,9.5-3.9l53.2-51.5C556.1,479.9,556.1,471.5,551,465.9L551,465.9z"/>
	<path class="st0" d="M501.8,496.2c11.2-9.5,12.9-26.3,3.4-38.1l-89-105.8l15.7,102.5l31.9,38.1c5.6,6.2,12.9,9.5,20.7,9.5
		C490.6,502.3,496.7,500.1,501.8,496.2L501.8,496.2z"/>
	<path class="st0" d="M320.3,72.8c0,32.5-26.3,58.8-58.8,58.8s-58.8-26.3-58.8-58.8S229,14,261.5,14C294,14,320.3,40.3,320.3,72.8"
		/>
	<path class="st0" d="M320.3,396.5h-75.6c-20.2,0-37.5-14.6-40.3-34.7l-23.5-150.6c-1.7-9.5-10.6-16.2-20.7-15.1
		c-9.5,1.7-16.2,10.6-15.1,20.7l23.5,150.6c5.6,37.5,38.1,65,76.2,65h75c10.1,0,17.9-7.8,17.9-17.9
		C338.2,404.9,329.8,396.5,320.3,396.5z"/>
	<path class="st0" d="M434,254.8l-6.7,11.8c-3.9,6.7-1.7,14.6,5,18.5c2.2,1.1,4.5,1.7,6.7,1.7c4.5,0,9-2.2,11.8-6.7l19.6-33.6
		l31.9,22.4c2.2,1.7,5,2.2,7.8,2.2c3.9,0,8.4-2.2,11.2-5.6c4.5-6.2,2.8-14.6-3.4-19L484.3,223l20.2-35.3c3.9-6.7,1.7-14.6-5-18.5
		c-6.7-3.4-14.6-1.7-18.5,5l-18.5,32.5c2.8,4.5,3.9,9.5,3.9,15.1C465.9,239.1,451.4,253.7,434,254.8L434,254.8z"/>
	<path class="st0" d="M404.3,343.8c-2.2-12.9-13.4-23-26.3-23h-51l-6.7-95.2c18.5,11.8,40.9,18.5,63.3,18.5h49.3
		c12.3,0,22.4-10.1,22.4-22.4c0-12.3-10.1-22.4-22.4-22.4h-49.3c-15.7,0-30.8-4.5-43.7-12.9l-44.8-29.7c-8.4-5.6-18.5-9.5-29.7-9.5
		H257c-15.7,0-30.2,6.7-40.9,18.5c-10.1,11.8-14.6,27.4-12.3,43.1l22.4,142.8c2.2,12.9,13.4,23,26.3,23h101.9l23,148.4
		c2.2,13.4,13.4,23,26.3,23c1.1,0,2.8,0,3.9-0.6c14.6-2.2,24.6-16.2,22.4-30.8L404.3,343.8z"/>
</g>
</svg>
