<?xml version="1.0" encoding="utf-8"?>
<!-- Generator: Adobe Illustrator 24.1.1, SVG Export Plug-In . SVG Version: 6.00 Build 0)  -->
<svg version="1.1" id="Capa_1" xmlns="http://www.w3.org/2000/svg" xmlns:xlink="http://www.w3.org/1999/xlink" x="0px" y="0px"
	 viewBox="0 0 700 700" style="enable-background:new 0 0 700 700;" xml:space="preserve">
<style type="text/css">
	.st0{fill:#FFFFFF;}
</style>
<g>
	<path class="st0" d="M367.9,392v-6.2l1.1-70.6V167.9c0-40.3,35.3-73.4,79-73.4s79,33,79,73.4v143.9h-9l-12.9,33v56.6h20.2
		c-1.1,6.2-1.7,12.9-1.7,19.6c0,19.6,5,36.4,12.9,49.3c-5.6,6.7-12.9,11.2-20.2,11.2v9.5c10.1,0,19-4.5,26.3-12.9
		c7.3,7.8,16.2,12.9,26.3,12.9v-9.5c-7.3,0-14.6-3.9-20.2-11.2c7.8-12.3,12.9-29.7,12.9-49.3c0-6.7-0.6-13.4-1.7-19.6h19.6V345
		l-12.9-33h-9V168c0-56.6-49.3-101.9-110.3-101.9C387,66.1,337.7,112,337.7,168v6.2l-1.1,70.6V392c0,40.3-35.3,73.4-79,73.4
		s-78.4-33-78.4-73.4V245.3h10.1l12.9-33v-56.6H182c1.1-6.2,1.7-12.9,1.7-19.6c0-19.6-5-36.4-12.9-49.3c5.6-6.7,12.9-11.2,20.2-11.2
		v-9.5c-10.1,0-19,4.5-26.3,12.9c-7.3-7.8-16.2-12.9-26.3-12.9v9.5c7.3,0,14.6,3.9,20.2,11.2c-7.8,12.3-12.9,29.7-12.9,49.3
		c0,6.7,0.6,13.4,1.7,19.6h-20.2v57.1l12.9,33h6.7V392c0,56.6,49.3,101.9,110.3,101.9C318.6,493.9,367.9,448,367.9,392L367.9,392z
		 M551.6,421.1c0,15.1-3.4,29.1-9.5,40.3c-5.6-10.6-9.5-24.6-9.5-40.3c0-6.7,0.6-13.4,2.2-19.6h14.6
		C551,407.7,551.6,414.4,551.6,421.1L551.6,421.1z M155.7,136.1c0-15.1,3.4-29.1,9.5-40.3c5.6,10.6,9.5,24.6,9.5,40.3
		c0,6.7-0.6,13.4-2.2,19.6h-14.6C156.8,149.5,155.7,143.4,155.7,136.1L155.7,136.1z"/>
</g>
</svg>
