<?xml version="1.0" encoding="utf-8"?>
<!-- Generator: Adobe Illustrator 24.1.1, SVG Export Plug-In . SVG Version: 6.00 Build 0)  -->
<svg version="1.1" id="Capa_1" xmlns="http://www.w3.org/2000/svg" xmlns:xlink="http://www.w3.org/1999/xlink" x="0px" y="0px"
	 viewBox="0 0 700 700" style="enable-background:new 0 0 700 700;" xml:space="preserve">
<style type="text/css">
	.st0{fill:#FFFFFF;}
</style>
<g>
	<path class="st0" d="M539,515.2h-68.6V98c0-12.4-10-22.4-22.4-22.4H252c-12.4,0-22.4,10-22.4,22.4v26.4c-51.9,32-84,89-84,150.1
		s32.1,118.1,84,150.1v90.5H161c-4.6,0-8.4,3.8-8.4,8.4c0,4.6,3.8,8.4,8.4,8.4h68.6H539c4.6,0,8.4-3.8,8.4-8.4
		C547.4,519,543.6,515.2,539,515.2L539,515.2z M287,358.4c6.9,0,12.6,5.7,12.6,12.6s-5.7,12.6-12.6,12.6s-12.6-5.7-12.6-12.6
		S280.1,358.4,287,358.4z M287,288.4c6.9,0,12.6,5.7,12.6,12.6s-5.7,12.6-12.6,12.6s-12.6-5.7-12.6-12.6S280.1,288.4,287,288.4z
		 M425.6,224c0,3.1-2.5,5.6-5.6,5.6H280c-3.1,0-5.6-2.5-5.6-5.6v-98c0-3.1,2.5-5.6,5.6-5.6h140c3.1,0,5.6,2.5,5.6,5.6V224z
		 M162.4,274.5c0-51.7,25.4-100.3,67.2-130.1v260.2C187.8,374.9,162.4,326.3,162.4,274.5z"/>
</g>
</svg>
