<?xml version="1.0" encoding="utf-8"?>
<!-- Generator: Adobe Illustrator 24.1.1, SVG Export Plug-In . SVG Version: 6.00 Build 0)  -->
<svg version="1.1" id="Capa_1" xmlns="http://www.w3.org/2000/svg" xmlns:xlink="http://www.w3.org/1999/xlink" x="0px" y="0px"
	 viewBox="0 0 700 700" style="enable-background:new 0 0 700 700;" xml:space="preserve">
<style type="text/css">
	.st0{fill:#FFFFFF;}
</style>
<g>
	<path class="st0" d="M85.2,336v-22.4h71.2l16.8,16.8l7.9-7.9L161,302.4H85.1v-17l64.6,0.1c4.7,0,8.8-2.1,11.7-6
		c2.8-3.7,2.8-7.7,2.8-11v-4.6c0.1-4.6,0.1-9.2,0-17.4l-0.1-3.2L109,211.2c4.6-3.7,9.9-6.8,15.5-9.2l1.3,1l1.6-2.2
		c3.9-1.4,7.9-2.6,12.2-3.3c41.3-7,83.2-11.2,124.6-12.5l-0.3-11.2c-41.9,1.3-84.2,5.5-125.9,12.6l36-48.4
		c9.8-13.2,23.6-20.3,40.1-20.3h50.1v-11.2h-50.1c-19.9,0-37.3,8.8-49.1,24.8l-40.7,55.2v-24.1h-24.1c-15.8,0-28.7,12.9-28.7,28.7
		v10.2h32.3c-18.4,13.9-30,35.6-30,59.6v123c0,13.5,10.8,24.6,24,24.6h41.5c13.3,0,24-11,24-24.6v-36.8H264V336H163.3H85.2z
		 M153.1,263.9v4.7c0,2.3,0,3.6-0.6,4.3c-0.8,1-1.6,1.5-2.7,1.5v5.6v-5.6L86,274.2v-10c0-16.4,5.9-31.8,16.7-43.7l10,5.8
		c-6.1,4.4-10.2,11.5-10.2,19.6c0,13.3,10.8,24.1,24.1,24.1c12.5,0,22.6-9.5,23.8-21.7l2.8,1.6C153.2,256.1,153.2,260,153.1,263.9
		L153.1,263.9z M139.4,246c0,7.1-5.8,12.9-12.9,12.9s-12.9-5.8-12.9-12.9c0-6.4,4.6-11.6,10.9-12.6l13.9,8.1
		C139,242.9,139.4,244.4,139.4,246L139.4,246z M100.3,173.6h12.9v16.5H82.9C83.4,180.9,91,173.6,100.3,173.6z M152.4,352.8h-11.2
		V364h11.2v5.6h-11.2v11.2h11.2v3.2c0,7.4-5.8,13.4-12.8,13.4h-4v-27.7h-11.2v27.7h-11.2v-27.7H102v27.7h-4c-7.1,0-12.8-6-12.8-13.4
		v-3.2h11.2v-11.2H85.2V364h11.2v-11.2H85.2v-5.6h67.2V352.8z"/>
	<path class="st0" d="M197.1,252h67.3v-11.2h-78.8v5.6c0,33.4,26,50.4,50.3,55.1c10.4,2,19.4,3.5,27.5,4.5l1.4-11.1
		c-7.9-1-16.6-2.4-26.8-4.4C219.5,286.9,199.9,274.9,197.1,252L197.1,252z"/>
	<path class="st0" d="M609.9,100.8H294c-10.2,0-18.4,8.3-18.4,18.4v237.5c0,10.2,8.3,18.4,18.4,18.4h104.8v39.2h-14
		c-13.7,0-25.2,11.5-25.2,25.2v19.6h184.8v-19.6c0-13.7-11.5-25.2-25.2-25.2h-14v-39.2H610c10.2,0,18.4-8.3,18.4-18.4V119.2
		C628.4,109.1,620.1,100.8,609.9,100.8L609.9,100.8z M294,112h315.9c4,0,7.2,3.2,7.2,7.2v200H286.8v-200
		C286.8,115.2,290,112,294,112L294,112z M519.2,425.6c7.3,0,14,6.7,14,14v8.4H370.8v-8.4c0-7.3,6.7-14,14-14h14v11.2h106.4v-11.2
		H519.2z M494,425.6h-84v-50.4h84V425.6z M609.9,364H294c-4,0-7.2-3.2-7.2-7.2v-26.4h330.4v26.4C617.2,360.8,613.9,364,609.9,364
		L609.9,364z"/>
	<path class="st0" d="M359.6,285.5l50.6,13.8l83.9-27.4l61.6,17.1l52-17.6l-3.6-10.6l-48.8,16.5l-61.6-17.1l-83.9,27.4l-50.4-13.7
		L309,288l3,10.8L359.6,285.5z"/>
	<path class="st0" d="M342.8,140H354v95.2h-11.2V140z"/>
	<path class="st0" d="M326,168h11.2v67.2H326V168z"/>
	<path class="st0" d="M309.2,184.8h11.2v50.4h-11.2V184.8z"/>
	<path class="st0" d="M359.6,140h11.2v95.2h-11.2V140z"/>
	<path class="st0" d="M376.4,201.6h11.2v33.6h-11.2V201.6z"/>
	<path class="st0" d="M578,140h11.2v95.2H578V140z"/>
	<path class="st0" d="M393.2,140h11.2v95.2h-11.2V140z"/>
	<path class="st0" d="M410,151.2h11.2v84H410V151.2z"/>
	<path class="st0" d="M426.8,168.4H438v66.8h-11.2V168.4z"/>
	<path class="st0" d="M443.6,140h11.2v95.2h-11.2V140z"/>
	<path class="st0" d="M460.4,217.4h11.2v17.8h-11.2V217.4z"/>
	<path class="st0" d="M477.2,168h11.2v67.2h-11.2V168z"/>
	<path class="st0" d="M494,179.2h11.2v56H494V179.2z"/>
	<path class="st0" d="M510.8,151.2H522v84h-11.2V151.2z"/>
	<path class="st0" d="M527.6,140h11.2v95.2h-11.2V140z"/>
	<path class="st0" d="M544,179.2h11.2v56H544V179.2z"/>
	<path class="st0" d="M561.2,151.2h11.2v84h-11.2V151.2z"/>
</g>
</svg>
