<?xml version="1.0" encoding="utf-8"?>
<!-- Generator: Adobe Illustrator 24.1.1, SVG Export Plug-In . SVG Version: 6.00 Build 0)  -->
<svg version="1.1" id="Capa_1" xmlns="http://www.w3.org/2000/svg" xmlns:xlink="http://www.w3.org/1999/xlink" x="0px" y="0px"
	 viewBox="0 0 700 700" style="enable-background:new 0 0 700 700;" xml:space="preserve">
<style type="text/css">
	.st0{fill:#FFFFFF;}
</style>
<g>
	<path class="st0" d="M241.9,114.2L124.1,232.1l-4.8-4.8l117.9-117.9L241.9,114.2z M254.4,126.7L136.5,244.6l6.9,6.9l117.9-117.9
		L254.4,126.7z M460.1,381.8c-8.1-8.1-19-13.1-30.6-14L399,358L268.7,227.7l-31.9,31.9l130.3,130.3l11.3,35.2
		c1.8,9.6,6.4,18.4,13.3,25.2c18.9,18.9,49.6,18.9,68.5,0C479,431.4,479,400.7,460.1,381.8L460.1,381.8z M372.1,386.7L244.9,259.5
		l23.8-23.8L395.9,363l32.2,10.4l0.7,0.2c10.3,0.7,19.9,5.1,27.2,12.4c16.6,16.6,16.6,43.7,0,60.3c-16.7,16.7-43.7,16.7-60.3,0
		c-6.1-6.1-10.2-13.9-11.7-22.4l-1-5.4l-0.5,0.6L372.1,386.7z M443.2,398.7c-9.6-9.6-25.1-9.6-34.7,0s-9.6,25.2,0,34.7
		c9.6,9.6,25.2,9.6,34.7,0C452.8,423.8,452.8,408.3,443.2,398.7L443.2,398.7z M439.1,402.8c7.4,7.4,7.3,19.3,0.1,26.6
		c-7.4,7.3-19.3,7.4-26.7,0c-7.3-7.3-7.3-19.3,0.1-26.6C419.9,395.4,431.8,395.5,439.1,402.8L439.1,402.8z M449.1,392.8
		c-12.8-12.8-33.6-12.8-46.4,0s-12.8,33.6,0,46.4s33.6,12.8,46.4,0.1C461.9,426.4,461.9,405.6,449.1,392.8L449.1,392.8z M445,396.9
		c10.6,10.6,10.6,27.8,0,38.3c-10.6,10.6-27.7,10.6-38.3,0c-10.5-10.5-10.5-27.7,0-38.3C417.3,386.3,434.5,386.3,445,396.9
		L445,396.9z M273.5,145.8l55.7,55.7c0,0-23.2,4.8-37.9,7.8c-14.9,3-19.3,10.2-19.3,10.2s-35.1,35.1-45.3,45.3
		c-10.1,10.1-8.6,24.4-8.6,24.4s-6.6-6.6-17.5-17.5s-9.9-34.3-9.9-34.3l-24.4,24.4l51.3,51.3l-6.3,6.4l-55.7-55.7L273.5,145.8z
		 M244.7,207c-7.9-7.9-20.6-7.8-28.5,0c-7.8,7.9-7.9,20.6,0,28.5s20.6,7.9,28.5,0C252.6,227.7,252.6,214.9,244.7,207L244.7,207z
		 M240.3,211.5c-5.4-5.4-14.2-5.4-19.7,0c-5.4,5.4-5.4,14.3,0,19.7s14.2,5.4,19.7,0C245.7,225.7,245.7,216.9,240.3,211.5
		L240.3,211.5z M236.3,215.5c3.2,3.2,3.2,8.4,0,11.6c-3.2,3.2-8.4,3.2-11.6,0c-3.2-3.2-3.2-8.4,0-11.6
		C227.9,212.3,233.1,212.3,236.3,215.5L236.3,215.5z M145.4,219l-3.5,3.5l4.6,4.6l3.5-3.5L145.4,219z M163.9,237.5l-3.5,3.5l4.6,4.6
		l3.5-3.5L163.9,237.5z M230.8,133.5L200,164.4l-19.8,29l55.2-55.2L230.8,133.5z M249.4,152l-30.8,30.9l-19.8,29l55.2-55.2
		L249.4,152z M340.3,313.1l-4.9,31.2l-84.8-84.8l18-18L340.3,313.1z M371.7,344.5l-5.4,30.7l-5.1-5.1l4.6-31.5L371.7,344.5z
		 M357.3,330.2l-4.9,31.2l-8.3-8.3l4.7-31.4L357.3,330.2z M453.1,388.7c15.1,15.1,15.1,39.6,0.1,54.6c-15.1,15.1-39.6,15.1-54.7,0
		c-5.5-5.5-9.3-12.5-10.6-20.3l-2.4-12.9l-1.3,1.3l-4.9-15.7l6.9-36.7l7.6,7.5l34,11l0.8,0.1C437.8,378.2,446.6,382.2,453.1,388.7
		L453.1,388.7z M451.8,390.1c-14.3-14.3-37.5-14.3-51.8,0c-14.4,14.4-14.4,37.6-0.1,51.8c14.3,14.3,37.5,14.3,51.9,0
		C466.1,427.7,466.1,404.5,451.8,390.1L451.8,390.1z M417.1,240.8l-63.5,63.4l18.1,18.1l63.4-63.4L417.1,240.8z M233.3,388.7
		c-15.1,15.1-15.1,39.6,0,54.7c15,15,39.5,15,54.6,0c6.5-6.6,10.5-15.3,11.1-24.6l0.1-0.8l11-34l7.5-7.6l-36.7-6.9l-15.7,4.9
		l1.3,1.3l-12.9,2.4C245.9,379.4,238.8,383.2,233.3,388.7L233.3,388.7z M286.5,390.1c14.3,14.3,14.3,37.5,0,51.8
		c-14.4,14.3-37.6,14.3-51.8,0.1c-14.4-14.4-14.4-37.5,0-51.9C249,375.8,272.2,375.8,286.5,390.1L286.5,390.1z M301.5,356.4
		l28.8,5.1l-7.8-7.8l-15.9-2.3L301.5,356.4z M237.4,439.3c12.8,12.8,33.6,12.8,46.4,0s12.8-33.6,0-46.4s-33.6-12.8-46.4,0
		C224.7,405.7,224.6,426.5,237.4,439.3L237.4,439.3z M241.5,396.9c10.5-10.5,27.7-10.6,38.3,0c10.6,10.6,10.6,27.8,0,38.3
		c-10.6,10.6-27.8,10.6-38.3,0C230.9,424.6,230.9,407.5,241.5,396.9L241.5,396.9z M243.3,433.4c9.6,9.6,25.1,9.6,34.7,0
		s9.6-25.1,0-34.7s-25.2-9.6-34.7,0C233.7,408.2,233.7,423.8,243.3,433.4L243.3,433.4z M247.3,402.7c7.3-7.3,19.3-7.3,26.6,0.1
		c7.3,7.3,7.3,19.3,0,26.6c-7.4,7.4-19.3,7.3-26.6,0.1C240,422,239.9,410.1,247.3,402.7L247.3,402.7z M346.8,297.3l4.1,4.1
		l66.3-66.3l23.8,23.8l-66.3,66.3l4,4l70.4-70.4l-32-31.8L346.8,297.3z M449.3,109.4l-4.8,4.8l117.9,117.9l4.8-4.8L449.3,109.4z
		 M425.2,133.6l117.9,117.9l6.9-6.9L432.1,126.7L425.2,133.6z M454.2,132l-4.6,4.6l3.5,3.5l4.5-4.6L454.2,132z M512.3,190.2
		l-28.9-19.8l55.2,55.2l4.6-4.6L512.3,190.2z M493.8,208.7l-29-19.8l55.3,55.2l4.6-4.6L493.8,208.7z M465.2,230.5
		c5.4-5.4,5.4-14.2,0-19.7c-5.4-5.4-14.3-5.4-19.7,0c-5.4,5.4-5.4,14.2,0,19.7C450.9,235.9,459.8,235.9,465.2,230.5L465.2,230.5z
		 M449.5,214.8c3.2-3.2,8.4-3.2,11.6,0s3.2,8.4,0,11.6c-3.2,3.2-8.4,3.2-11.6,0C446.4,223.2,446.3,218,449.5,214.8L449.5,214.8z
		 M313.7,386.1l-10.4,32.2l-0.1,0.7c-0.7,10.3-5.1,19.9-12.3,27.1c-16.6,16.6-43.7,16.6-60.3,0c-16.7-16.7-16.7-43.7,0-60.3
		c6.1-6.1,13.9-10.2,22.4-11.7l5.5-1l-0.5-0.5l32.2-10.3l20.6-20.6l-4.1-4.1l-19.6,19.6l-35.2,11.3c-9.6,1.8-18.3,6.4-25.2,13.3
		c-18.9,18.9-18.9,49.6,0,68.5s49.6,18.9,68.5,0c8.1-8.1,13.1-19,14-30.6l9.9-30.6l19.6-19.6l-4-4L313.7,386.1z M435.6,150.6
		l-4.6,4.6l3.5,3.5l4.6-4.6L435.6,150.6z M357.3,201.4l6.3,6.3l51.3-51.3l24.4,24.4c0,0-23.4-1-34.3,9.9s-17.5,17.5-17.5,17.5
		s14.3-1.5,24.4,8.6c10.2,10.2,45.3,45.3,45.3,45.3s7.2,4.4,10.2,19.3c3,14.8,7.8,37.9,7.8,37.9l55.7-55.7L413,145.7L357.3,201.4z
		 M469.6,206.4c7.9,7.9,7.9,20.7,0,28.5c-7.9,7.9-20.6,7.8-28.5,0c-7.8-7.8-7.9-20.6,0-28.5S461.7,198.6,469.6,206.4L469.6,206.4z"
		/>
</g>
</svg>
