<?xml version="1.0" encoding="utf-8"?>
<!-- Generator: Adobe Illustrator 24.1.1, SVG Export Plug-In . SVG Version: 6.00 Build 0)  -->
<svg version="1.1" id="Capa_1" xmlns="http://www.w3.org/2000/svg" xmlns:xlink="http://www.w3.org/1999/xlink" x="0px" y="0px"
	 viewBox="0 0 700 700" style="enable-background:new 0 0 700 700;" xml:space="preserve">
<style type="text/css">
	.st0{fill:#FFFFFF;}
</style>
<g>
	<path class="st0" d="M350,141.6c-76.3,0-138.4,62.1-138.4,138.4S273.7,418.4,350,418.4S488.4,356.3,488.4,280
		S426.3,141.6,350,141.6z M350,161.6c12.4,0,24.3,1.9,35.5,5.4c-3.2,16.7-17.8,29.3-35.5,29.3s-32.3-12.6-35.5-29.3
		C325.7,163.5,337.7,161.6,350,161.6z M295.2,175.1c9.5,14.1,8.1,33.3-4.4,45.8c-12.4,12.4-31.7,13.9-45.8,4.4
		C256.3,203.9,273.9,186.3,295.2,175.1L295.2,175.1z M231.6,280c0-12.4,1.9-24.3,5.4-35.5c16.7,3.2,29.3,17.8,29.3,35.5
		s-12.6,32.3-29.3,35.5C233.5,304.3,231.6,292.3,231.6,280z M295.2,384.9c-21.4-11.2-38.9-28.8-50.1-50.1
		c14.1-9.5,33.3-8.1,45.8,4.4C303.3,351.6,304.8,370.8,295.2,384.9L295.2,384.9z M350,398.4c-12.3,0-24.3-1.9-35.5-5.4
		c3.2-16.7,17.9-29.3,35.5-29.3s32.3,12.6,35.5,29.3C374.3,396.5,362.4,398.4,350,398.4z M350,338.4c-32.3,0-58.4-26.2-58.4-58.5
		s26.2-58.5,58.4-58.5c32.3,0,58.5,26.2,58.5,58.5C408.5,312.3,382.3,338.4,350,338.4z M404.8,384.9c-9.5-14.1-8.1-33.3,4.4-45.8
		c12.4-12.4,31.7-13.9,45.8-4.4C443.7,356.1,426.1,373.7,404.8,384.9L404.8,384.9z M468.4,280c0,12.3-1.9,24.3-5.4,35.5
		c-16.7-3.2-29.3-17.9-29.3-35.5s12.6-32.3,29.3-35.5C466.5,255.7,468.4,267.6,468.4,280z M409.1,220.9
		c-12.4-12.4-13.9-31.7-4.4-45.8c21.4,11.2,38.9,28.8,50.1,50.1C440.8,234.7,421.6,233.3,409.1,220.9L409.1,220.9z M604,302.7
		c0.7-7.5,1-15,1-22.7c0-6.1-0.2-12.3-0.7-18.3l-8.9,0.8l-0.8-8.6l8.9-0.8c-1.5-14-4.1-27.7-7.7-41l-8.6,2.5l-2.4-8.3l8.6-2.5
		c-4-12.7-8.9-24.9-14.7-36.7l-8,4.1l-3.9-7.6l8-4.1c-6.9-12.9-14.9-25.1-23.8-36.5l-6.9,5.6l-5.4-6.7l6.9-5.6
		c-8.8-10.5-18.4-20.3-28.7-29.2l-5.7,6.8l-6.6-5.5l5.7-6.8C499.5,72.9,488,65,475.8,58.1l-4.3,7.9l-7.6-4.1l4.3-7.8
		c-11.6-6.1-23.7-11.3-36.3-15.6l-2.7,8.5l-8.2-2.6l2.7-8.5c-13.8-4.2-28-7.2-42.6-9l-1,8.9l-8.5-0.9l0.9-8.8c-7.5-0.7-15-1-22.7-1
		c-6.2,0-12.3,0.2-18.3,0.7l0.8,8.9l-8.6,0.8l-0.8-8.9c-14,1.5-27.7,4.1-41,7.7l2.5,8.6l-8.3,2.4l-2.5-8.6
		c-12.7,4-24.9,8.9-36.6,14.7l4.1,8l-7.6,3.9l-4.1-8C216.7,62,204.5,70,193.1,78.9l5.6,6.9l-6.7,5.4l-5.6-6.9
		c-10.5,8.8-20.3,18.4-29.2,28.7l6.8,5.7l-5.5,6.6l-6.8-5.7c-8.7,10.8-16.6,22.3-23.5,34.5l7.8,4.3l-4.1,7.6l-7.9-4.3
		c-6.1,11.6-11.3,23.7-15.6,36.3l8.5,2.7l-2.6,8.2l-8.5-2.7c-4.2,13.8-7.2,28-9,42.6l8.9,1l-0.9,8.5l-8.9-0.9c-0.7,7.5-1,15-1,22.7
		c0,6.2,0.2,12.3,0.7,18.3l8.9-0.8l0.8,8.6l-8.9,0.8c1.5,14,4.1,27.7,7.7,41l8.6-2.5l2.4,8.3l-8.6,2.5c4,12.7,8.9,24.9,14.7,36.6
		l8-4.1l3.9,7.6l-8,4.1c6.9,12.9,14.9,25.1,23.8,36.5l6.9-5.6l5.4,6.7l-6.9,5.6c8.8,10.5,18.4,20.3,28.7,29.2l5.7-6.8l6.6,5.5
		l-5.7,6.8c10.8,8.7,22.3,16.6,34.5,23.5l4.3-7.8l7.5,4.1l-4.3,7.9c11.6,6.1,23.7,11.3,36.3,15.6l2.7-8.5l8.2,2.6l-2.7,8.5
		c13.8,4.2,28,7.2,42.6,9l0.9-8.9l8.6,0.9l-0.9,8.9c7.5,0.7,15,1,22.7,1c6.1,0,12.3-0.2,18.3-0.7l-0.8-8.9l8.6-0.8l0.8,8.9
		c14-1.5,27.7-4.1,41-7.7l-2.5-8.6l8.3-2.4l2.5,8.6c12.7-4,24.9-8.9,36.7-14.7l-4.1-8l7.6-3.9l4.1,8c12.9-6.9,25.1-14.9,36.5-23.8
		l-5.6-6.9l6.7-5.4l5.6,6.9c10.5-8.8,20.3-18.4,29.2-28.7l-6.8-5.7l5.5-6.6l6.8,5.7c8.8-10.8,16.6-22.3,23.5-34.5l-7.9-4.3l4.1-7.5
		l7.8,4.3c6.1-11.6,11.3-23.7,15.6-36.3l-8.5-2.7l2.6-8.2l8.5,2.7c4.2-13.8,7.2-28,9-42.6l-8.9-0.9l0.9-8.6L604,302.7z M350,445.7
		c-91.5,0-165.7-74.2-165.7-165.7S258.5,114.3,350,114.3S515.7,188.5,515.7,280S441.5,445.7,350,445.7z"/>
</g>
</svg>
