<?xml version="1.0" encoding="utf-8"?>
<!-- Generator: Adobe Illustrator 24.1.1, SVG Export Plug-In . SVG Version: 6.00 Build 0)  -->
<svg version="1.1" id="Capa_1" xmlns="http://www.w3.org/2000/svg" xmlns:xlink="http://www.w3.org/1999/xlink" x="0px" y="0px"
	 viewBox="0 0 700 700" style="enable-background:new 0 0 700 700;" xml:space="preserve">
<style type="text/css">
	.st0{fill-rule:evenodd;clip-rule:evenodd;fill:#FFFFFF;}
</style>
<g>
	<path class="st0" d="M436.6,100.9c9.6,0.9,13.9,13.7,3.9,20.8l-38.9,22.6l11.2,19.4l92.9-53.9c9-5.2,19-7.8,28.7-7.5
		c18.6,0.4,36.4,10.3,46.2,27.5l8.4,14.7c15.1,26.1,6,59.8-19.9,75.1v0.2l-26.9,15.6l20.1,35.2c9,16.1,0,31.3-10,37.4L343,429.9
		c-13,7.5-29.8,2.9-37.3-10.1l-45.5-79.1l-118.8-39.4c-4.2-1.4-8.1-3.1-10.1-6.3c-8.8-15.6-17.4-30.9-26.3-46.4
		c-3.8-6.6,1.5-16.4,9.1-16.8L319.5,218l73.8-42.9l-11-19.4l-42,24.3c-13.7,7-23.8-11.5-11.2-19.4c33.6-19.6,66.5-38.6,100.1-58.1
		C431.9,101.2,434.4,100.7,436.6,100.9L436.6,100.9z M535.5,124.7c-6.2-0.4-12.5,0.9-18.4,4.4h-0.2l-26.8,15.6l40.8,71.1l26.8-15.4
		c15.5-9.1,20.9-29.1,11.9-44.6l-8.4-14.7C555.6,131.2,545.8,125.4,535.5,124.7L535.5,124.7z M519.4,301.2L213,301.4l56.7,18.7
		c4.6,1.7,6.7,3.8,8.8,7.2l46.7,81.2c1.4,2.4,4.2,3.3,6.6,1.9L519.4,301.2z"/>
	<path class="st0" d="M156.7,353.9c14.6,27.2,22.6,49.9,22.6,68.7c0,9.6-2.2,18.7-8.2,25.6c-5.9,6.9-15.1,10.6-24.7,10.9h-0.7
		c-9.9-0.3-19.3-3.7-25.4-10.7s-8.3-16.3-8.2-25.9c0.3-18.9,8.7-41.6,23.3-68.7C141.2,343.3,151.8,343.9,156.7,353.9L156.7,353.9z"
		/>
</g>
</svg>
