<?xml version="1.0" encoding="utf-8"?>
<!-- Generator: Adobe Illustrator 24.1.1, SVG Export Plug-In . SVG Version: 6.00 Build 0)  -->
<svg version="1.1" id="Capa_1" xmlns="http://www.w3.org/2000/svg" xmlns:xlink="http://www.w3.org/1999/xlink" x="0px" y="0px"
	 viewBox="0 0 700 700" style="enable-background:new 0 0 700 700;" xml:space="preserve">
<style type="text/css">
	.st0{fill:#FFFFFF;}
</style>
<g>
	<path class="st0" d="M78.8,533.8v17.5h542.5v-17.5H78.8z"/>
	<path class="st0" d="M218.8,428.8c-19.3,0-35,15.7-35,35s15.7,35,35,35s35-15.7,35-35S238.1,428.8,218.8,428.8z M218.8,481.3
		c-9.7,0-17.5-7.8-17.5-17.5s7.8-17.5,17.5-17.5s17.5,7.8,17.5,17.5S228.4,481.3,218.8,481.3z"/>
	<path class="st0" d="M481.3,428.8c-19.3,0-35,15.7-35,35s15.7,35,35,35s35-15.7,35-35S500.6,428.8,481.3,428.8z M481.3,481.3
		c-9.7,0-17.5-7.8-17.5-17.5s7.8-17.5,17.5-17.5s17.5,7.8,17.5,17.5S490.9,481.3,481.3,481.3z"/>
	<path class="st0" d="M616.4,350.9l-68.2-34.1l-9.4-12.2c49-26.7,82.4-78.7,82.4-138.4c0-86.8-70.7-157.5-157.5-157.5
		S306.2,79.4,306.2,166.2c0,12.6,1.6,24.7,4.4,36.4c-14.2,3-26.9,10.8-35.9,22.5l-65.4,85.1L93.9,186.5l-12.8,11.9l56.8,60.9
		L115,335.6c-21.3,7-36.3,27-36.3,49.7v60.9c0,14.5,11.8,26.3,26.3,26.3h44.4c4.3,34.5,33.8,61.3,69.4,61.3s65.1-26.8,69.4-61.3
		h123.7c4.3,34.5,33.8,61.3,69.4,61.3s65.1-26.8,69.4-61.3H595c14.5,0,26.3-11.8,26.3-26.3v-87.5
		C621.2,355.4,619.4,352.4,616.4,350.9L616.4,350.9z M603.8,420h-17.5v-64.6l17.5,8.8V420z M463.8,26.3c77.2,0,140,62.8,140,140
		s-62.8,140-140,140s-140-62.8-140-140S386.6,26.3,463.8,26.3z M481.9,323.8H385v-21.3c23.2,13.5,50.1,21.3,78.8,21.3
		c5.9,0,11.7-0.4,17.5-1L481.9,323.8z M332.9,253.8c9.5,14.1,21.2,26.5,34.6,36.9v33.1h-96.9l43.8-62.5c3.3-4.7,8.6-7.5,14.3-7.5
		L332.9,253.8z M193.1,318.4l-58.4,12.5l17-56.8L193.1,318.4z M96.3,385h17.5v17.5H96.2v-17.1C96.2,385.2,96.3,385.1,96.3,385
		L96.3,385z M218.7,516.3c-29,0-52.5-23.5-52.5-52.5s23.5-52.5,52.5-52.5s52.5,23.5,52.5,52.5S247.7,516.3,218.7,516.3z
		 M481.2,516.3c-29,0-52.5-23.5-52.5-52.5s23.5-52.5,52.5-52.5s52.5,23.5,52.5,52.5S510.2,516.3,481.2,516.3L481.2,516.3z M595,455
		h-44.4c-4.3-34.5-33.8-61.3-69.4-61.3s-65.1,26.8-69.4,61.3H288.1c-4.3-34.5-33.8-61.3-69.4-61.3s-65.1,26.8-69.4,61.3H105
		c-4.8,0-8.8-3.9-8.8-8.8V420h26.3c4.8,0,8.8-3.9,8.8-8.8v-35c0-4.8-3.9-8.8-8.8-8.8h-21.2c4.9-8.1,12.9-14.3,22.6-16.4l87.9-18.8
		c2-0.4,3.8-1.6,5.1-3.2l71.7-93.3c6.7-8.7,16.4-14.5,27-16.4c2.1,5.9,4.6,11.7,7.4,17.3c-9.3,1.5-17.6,6.6-23.1,14.4l-53.4,76.3
		c-1.9,2.7-2.1,6.2-0.6,9.1s4.5,4.7,7.8,4.7h245c3.3,0,6.3-1.8,7.8-4.7c1.5-2.9,1.3-6.4-0.6-9.1l-5.7-8.2c7.7-1.8,15.2-4.2,22.4-7.1
		l13,16.9c0.8,1.1,1.8,1.9,3,2.5l30.2,15.1v82.1c0,4.8,3.9,8.8,8.8,8.8h26.3v8.8C603.7,451.1,599.8,455,595,455L595,455z"/>
	<path class="st0" d="M350,358.8h35v17.5h-35V358.8z"/>
	<path class="st0" d="M472.5,358.8h35v17.5h-35V358.8z"/>
	<path class="st0" d="M402.5,271.3H525c14.5,0,26.3-11.8,26.3-26.3v-96.3c0-2.3-0.9-4.6-2.6-6.2l-43.8-43.8
		c-1.6-1.6-3.9-2.6-6.2-2.6H455V52.5c0-4.8-3.9-8.8-8.8-8.8h-35c-4.8,0-8.8,3.9-8.8,8.8V100c-15.4,6.8-26.3,22.1-26.3,40v105
		C376.3,259.5,388,271.3,402.5,271.3z M420,61.2h17.5v35H420V61.2z M393.8,140c0-14.5,11.8-26.3,26.3-26.3h75.1l38.6,38.6V245
		c0,4.8-3.9,8.8-8.8,8.8H402.5c-4.8,0-8.8-3.9-8.8-8.8L393.8,140L393.8,140z"/>
	<path class="st0" d="M463.8,210h43.8c4.8,0,8.8-3.9,8.8-8.8v-35c0-2.3-0.9-4.6-2.6-6.2l-26.3-26.3c-1.6-1.6-3.9-2.6-6.2-2.6h-17.5
		c-4.8,0-8.8,3.9-8.8,8.8v61.3C455,206.1,458.9,210,463.8,210z M472.5,148.8h5.1l21.1,21.1v22.6h-26.3L472.5,148.8z"/>
	<path class="st0" d="M166.3,218.8c19.3,0,35-15.7,35-35V175c0-1.4-0.3-2.7-0.9-3.9l-26.3-52.5c-3-5.9-12.7-5.9-15.7,0l-26.3,52.5
		c-0.6,1.2-0.9,2.6-0.9,3.9v8.8C131.3,203.1,146.9,218.8,166.3,218.8L166.3,218.8z M148.8,177.1l17.5-35l17.5,35v6.7
		c0,9.7-7.8,17.5-17.5,17.5s-17.5-7.8-17.5-17.5V177.1z"/>
</g>
</svg>
