<?xml version="1.0" encoding="utf-8"?>
<!-- Generator: Adobe Illustrator 24.1.1, SVG Export Plug-In . SVG Version: 6.00 Build 0)  -->
<svg version="1.1" id="Capa_1" xmlns="http://www.w3.org/2000/svg" xmlns:xlink="http://www.w3.org/1999/xlink" x="0px" y="0px"
	 viewBox="0 0 700 700" style="enable-background:new 0 0 700 700;" xml:space="preserve">
<style type="text/css">
	.st0{fill:#FFFFFF;}
</style>
<g>
	<path class="st0" d="M131.7,546.9h62.7c5-0.2,8.9-4.3,9-9.3v-32.3h95.1c10.8,14.2,28.3,24.6,48.1,24.6c19.8,0,37.3-10.4,48.1-24.6
		H490v32.3c0,4.8,4,9.3,8.8,9.3h62.7c4.8,0,8.3-4.5,8.3-9.3V419.5c0.1-2.2-0.8-4.4-2.3-5.9c-1.6-1.6-3.7-2.4-5.9-2.3h-62.7
		c-4.8,0-8.8,3.4-8.8,8.2v32.3h-86.9c-4.9-14.8-15.3-27.1-29.1-34.3V108.3h109.8l-4.8,30c-0.4,2.3,0.2,4.6,1.6,6.5s3.4,3.1,5.7,3.5
		l61.9,9.9l0,0c4.8,0.7,9.3-2.5,10-7.3l18.6-116.6c0.4-2.3-0.2-4.6-1.6-6.5c-1.4-1.9-3.4-3.1-5.7-3.5l-61.9-9.9
		c-2.3-0.4-4.6,0.2-6.5,1.6c-1.9,1.3-3.1,3.3-3.5,5.6l-5.3,33.2h-289V22.4c0-4.8-4.2-8.2-9-8.2h-62.7c-4.8,0-9.2,3.4-9.2,8.2v118.1
		c0.2,5,4.2,9.1,9.2,9.3h62.7c5-0.2,8.9-4.3,9-9.3v-32.3h117V417c-14.4,7-25.3,19.5-30.3,34.7h-86.7v-32.3c0-4.8-4.2-8.2-9-8.2
		h-62.7c-4.8,0-9.2,3.4-9.2,8.2v118.1C122.7,542.6,126.7,546.7,131.7,546.9L131.7,546.9z M507.5,428.8h44.8v100.6h-44.8V428.8z
		 M490,469.2v18.6h-86.5c1.7-5.7,2.6-11.6,2.6-17.5c0-0.3,0-1.1,0-1.1H490z M185.9,132.3H140V31.7h45.9V132.3z M513.6,33l44.6,7.1
		l-15.9,99.4l-44.6-7.1L513.6,33z M203.4,72.2h286.2l-2.9,18.6H203.4V72.2z M338,108.3h18.6v303.4c-3.2-0.5-6.4-0.8-9.7-0.8
		c-3,0-6,0.2-8.9,0.7V108.3z M346.6,428.4c11.1,0,21.8,4.4,29.6,12.3c7.9,7.9,12.3,18.5,12.3,29.6s-4.4,21.8-12.3,29.6
		c-7.9,7.9-18.5,12.3-29.6,12.3s-21.8-4.4-29.6-12.3c-7.9-7.9-12.3-18.5-12.3-29.6s4.4-21.8,12.3-29.6
		C324.9,432.8,335.5,428.4,346.6,428.4L346.6,428.4z M287.2,469.2c0,0,0,0.8,0,1.1c0,5.9,0.9,11.8,2.6,17.5h-86.3v-18.6H287.2z
		 M140,428.8h45.9v100.6H140V428.8z"/>
</g>
</svg>
